<mxfile host="app.diagrams.net" agent="Mozilla/5.0 (X11; Linux x86_64) AppleWebKit/537.36 (KHTML, like Gecko) Chrome/131.0.0.0 Safari/537.36" version="28.2.5">
  <diagram name="Page-1" id="WpOsHVK98zkQ9DvcX7D4">
    <mxGraphModel dx="748" dy="793" grid="1" gridSize="10" guides="1" tooltips="1" connect="1" arrows="1" fold="1" page="1" pageScale="1" pageWidth="850" pageHeight="1100" math="0" shadow="0">
      <root>
        <mxCell id="0" />
        <mxCell id="1" parent="0" />
        <mxCell id="bbvB43ekAmidRgDItIiR-31" value="" style="rounded=0;whiteSpace=wrap;html=1;" vertex="1" parent="1">
          <mxGeometry x="70" y="550" width="670" height="570" as="geometry" />
        </mxCell>
        <mxCell id="bbvB43ekAmidRgDItIiR-11" value="" style="rounded=0;whiteSpace=wrap;html=1;" vertex="1" parent="1">
          <mxGeometry x="50" y="130" width="610" height="320" as="geometry" />
        </mxCell>
        <mxCell id="bbvB43ekAmidRgDItIiR-1" value="Java&lt;br&gt;- Platform independent&lt;div&gt;- Object oritented&lt;/div&gt;&lt;div&gt;&lt;br&gt;&lt;/div&gt;&lt;div&gt;Java Ecosystem&lt;/div&gt;" style="text;html=1;align=center;verticalAlign=middle;whiteSpace=wrap;rounded=0;" vertex="1" parent="1">
          <mxGeometry x="240" y="20" width="210" height="100" as="geometry" />
        </mxCell>
        <mxCell id="bbvB43ekAmidRgDItIiR-4" value="" style="edgeStyle=orthogonalEdgeStyle;rounded=0;orthogonalLoop=1;jettySize=auto;html=1;" edge="1" parent="1" source="bbvB43ekAmidRgDItIiR-2" target="bbvB43ekAmidRgDItIiR-3">
          <mxGeometry relative="1" as="geometry" />
        </mxCell>
        <mxCell id="bbvB43ekAmidRgDItIiR-2" value="Actor" style="shape=umlActor;verticalLabelPosition=bottom;verticalAlign=top;html=1;outlineConnect=0;" vertex="1" parent="1">
          <mxGeometry x="70" y="160" width="30" height="60" as="geometry" />
        </mxCell>
        <mxCell id="bbvB43ekAmidRgDItIiR-6" value="" style="edgeStyle=orthogonalEdgeStyle;rounded=0;orthogonalLoop=1;jettySize=auto;html=1;" edge="1" parent="1" source="bbvB43ekAmidRgDItIiR-3" target="bbvB43ekAmidRgDItIiR-5">
          <mxGeometry relative="1" as="geometry" />
        </mxCell>
        <mxCell id="bbvB43ekAmidRgDItIiR-3" value="HelloWorld.java" style="whiteSpace=wrap;html=1;verticalAlign=top;" vertex="1" parent="1">
          <mxGeometry x="270" y="160" width="120" height="60" as="geometry" />
        </mxCell>
        <mxCell id="bbvB43ekAmidRgDItIiR-8" value="" style="edgeStyle=orthogonalEdgeStyle;rounded=0;orthogonalLoop=1;jettySize=auto;html=1;" edge="1" parent="1" source="bbvB43ekAmidRgDItIiR-5" target="bbvB43ekAmidRgDItIiR-7">
          <mxGeometry relative="1" as="geometry" />
        </mxCell>
        <mxCell id="bbvB43ekAmidRgDItIiR-5" value="JavaC&lt;br&gt;JDK" style="whiteSpace=wrap;html=1;verticalAlign=top;" vertex="1" parent="1">
          <mxGeometry x="470" y="160" width="120" height="60" as="geometry" />
        </mxCell>
        <mxCell id="bbvB43ekAmidRgDItIiR-10" value="" style="edgeStyle=orthogonalEdgeStyle;rounded=0;orthogonalLoop=1;jettySize=auto;html=1;" edge="1" parent="1" source="bbvB43ekAmidRgDItIiR-7" target="bbvB43ekAmidRgDItIiR-9">
          <mxGeometry relative="1" as="geometry" />
        </mxCell>
        <mxCell id="bbvB43ekAmidRgDItIiR-7" value="HelloWord.class&lt;br&gt;byte code" style="whiteSpace=wrap;html=1;verticalAlign=top;" vertex="1" parent="1">
          <mxGeometry x="470" y="300" width="120" height="60" as="geometry" />
        </mxCell>
        <mxCell id="bbvB43ekAmidRgDItIiR-9" value="JVM&lt;br&gt;- execute class file&lt;br&gt;- provide runtime environment&lt;br&gt;- garbage collection" style="whiteSpace=wrap;html=1;verticalAlign=top;" vertex="1" parent="1">
          <mxGeometry x="210" y="275" width="180" height="110" as="geometry" />
        </mxCell>
        <mxCell id="bbvB43ekAmidRgDItIiR-16" value="" style="edgeStyle=orthogonalEdgeStyle;rounded=0;orthogonalLoop=1;jettySize=auto;html=1;" edge="1" parent="1" source="bbvB43ekAmidRgDItIiR-14" target="bbvB43ekAmidRgDItIiR-15">
          <mxGeometry relative="1" as="geometry" />
        </mxCell>
        <mxCell id="bbvB43ekAmidRgDItIiR-14" value="Actor" style="shape=umlActor;verticalLabelPosition=bottom;verticalAlign=top;html=1;outlineConnect=0;" vertex="1" parent="1">
          <mxGeometry x="80" y="590" width="30" height="60" as="geometry" />
        </mxCell>
        <mxCell id="bbvB43ekAmidRgDItIiR-18" value="" style="edgeStyle=orthogonalEdgeStyle;rounded=0;orthogonalLoop=1;jettySize=auto;html=1;" edge="1" parent="1" source="bbvB43ekAmidRgDItIiR-15" target="bbvB43ekAmidRgDItIiR-17">
          <mxGeometry relative="1" as="geometry" />
        </mxCell>
        <mxCell id="bbvB43ekAmidRgDItIiR-15" value="Scenario.txt" style="whiteSpace=wrap;html=1;verticalAlign=top;" vertex="1" parent="1">
          <mxGeometry x="150" y="590" width="120" height="60" as="geometry" />
        </mxCell>
        <mxCell id="bbvB43ekAmidRgDItIiR-20" value="" style="edgeStyle=orthogonalEdgeStyle;rounded=0;orthogonalLoop=1;jettySize=auto;html=1;" edge="1" parent="1" source="bbvB43ekAmidRgDItIiR-17" target="bbvB43ekAmidRgDItIiR-19">
          <mxGeometry relative="1" as="geometry" />
        </mxCell>
        <mxCell id="bbvB43ekAmidRgDItIiR-17" value="Parser&lt;br&gt;- verify file&lt;div&gt;- parse file into parsed Data&lt;/div&gt;" style="whiteSpace=wrap;html=1;verticalAlign=top;" vertex="1" parent="1">
          <mxGeometry x="350" y="590" width="120" height="60" as="geometry" />
        </mxCell>
        <mxCell id="bbvB43ekAmidRgDItIiR-22" value="" style="edgeStyle=orthogonalEdgeStyle;rounded=0;orthogonalLoop=1;jettySize=auto;html=1;" edge="1" parent="1" source="bbvB43ekAmidRgDItIiR-19" target="bbvB43ekAmidRgDItIiR-21">
          <mxGeometry relative="1" as="geometry" />
        </mxCell>
        <mxCell id="bbvB43ekAmidRgDItIiR-19" value="ParsedData&lt;br&gt;- simulation step&lt;br&gt;- aircraft Data" style="whiteSpace=wrap;html=1;verticalAlign=top;" vertex="1" parent="1">
          <mxGeometry x="550" y="590" width="120" height="60" as="geometry" />
        </mxCell>
        <mxCell id="bbvB43ekAmidRgDItIiR-24" value="" style="edgeStyle=orthogonalEdgeStyle;rounded=0;orthogonalLoop=1;jettySize=auto;html=1;" edge="1" parent="1" source="bbvB43ekAmidRgDItIiR-21" target="bbvB43ekAmidRgDItIiR-23">
          <mxGeometry relative="1" as="geometry" />
        </mxCell>
        <mxCell id="bbvB43ekAmidRgDItIiR-21" value="Simulator&lt;br&gt;- run simulation" style="whiteSpace=wrap;html=1;verticalAlign=top;" vertex="1" parent="1">
          <mxGeometry x="550" y="730" width="120" height="60" as="geometry" />
        </mxCell>
        <mxCell id="bbvB43ekAmidRgDItIiR-26" value="" style="edgeStyle=orthogonalEdgeStyle;rounded=0;orthogonalLoop=1;jettySize=auto;html=1;" edge="1" parent="1" source="bbvB43ekAmidRgDItIiR-23" target="bbvB43ekAmidRgDItIiR-25">
          <mxGeometry relative="1" as="geometry" />
        </mxCell>
        <mxCell id="bbvB43ekAmidRgDItIiR-23" value="Simulator&lt;br&gt;- run simulation" style="whiteSpace=wrap;html=1;verticalAlign=top;" vertex="1" parent="1">
          <mxGeometry x="350" y="730" width="120" height="60" as="geometry" />
        </mxCell>
        <mxCell id="bbvB43ekAmidRgDItIiR-28" value="" style="edgeStyle=orthogonalEdgeStyle;rounded=0;orthogonalLoop=1;jettySize=auto;html=1;" edge="1" parent="1" source="bbvB43ekAmidRgDItIiR-25" target="bbvB43ekAmidRgDItIiR-27">
          <mxGeometry relative="1" as="geometry" />
        </mxCell>
        <mxCell id="bbvB43ekAmidRgDItIiR-25" value="Aircraft factory&lt;br&gt;- create flayable&lt;br&gt;- register tower" style="whiteSpace=wrap;html=1;verticalAlign=top;" vertex="1" parent="1">
          <mxGeometry x="150" y="730" width="120" height="60" as="geometry" />
        </mxCell>
        <mxCell id="bbvB43ekAmidRgDItIiR-30" value="" style="edgeStyle=orthogonalEdgeStyle;rounded=0;orthogonalLoop=1;jettySize=auto;html=1;" edge="1" parent="1" source="bbvB43ekAmidRgDItIiR-27" target="bbvB43ekAmidRgDItIiR-29">
          <mxGeometry relative="1" as="geometry" />
        </mxCell>
        <mxCell id="bbvB43ekAmidRgDItIiR-27" value="Weather tower (subject)&lt;br&gt;- store a list of flyable&lt;br&gt;- change weather&amp;nbsp;" style="whiteSpace=wrap;html=1;verticalAlign=top;" vertex="1" parent="1">
          <mxGeometry x="150" y="900" width="120" height="60" as="geometry" />
        </mxCell>
        <mxCell id="bbvB43ekAmidRgDItIiR-33" value="" style="edgeStyle=orthogonalEdgeStyle;rounded=0;orthogonalLoop=1;jettySize=auto;html=1;" edge="1" parent="1" source="bbvB43ekAmidRgDItIiR-29" target="bbvB43ekAmidRgDItIiR-32">
          <mxGeometry relative="1" as="geometry" />
        </mxCell>
        <mxCell id="bbvB43ekAmidRgDItIiR-29" value="Each aircraft &lt;br&gt;- get current weather from weather provider through weather tower&lt;br&gt;- update condition" style="whiteSpace=wrap;html=1;verticalAlign=top;" vertex="1" parent="1">
          <mxGeometry x="350" y="870" width="180" height="120" as="geometry" />
        </mxCell>
        <mxCell id="bbvB43ekAmidRgDItIiR-32" value="Logger record all the simulation in the updated condition" style="whiteSpace=wrap;html=1;verticalAlign=top;" vertex="1" parent="1">
          <mxGeometry x="580" y="900" width="120" height="60" as="geometry" />
        </mxCell>
      </root>
    </mxGraphModel>
  </diagram>
</mxfile>
